<?xml version="1.0" encoding="utf-8"?>
<!-- Generator: Adobe Illustrator 21.0.0, SVG Export Plug-In . SVG Version: 6.00 Build 0)  -->
<svg version="1.1" id="Calque_1" xmlns="http://www.w3.org/2000/svg" xmlns:xlink="http://www.w3.org/1999/xlink" x="0px" y="0px"
	 viewBox="0 0 108 118.5" style="enable-background:new 0 0 108 118.5;" xml:space="preserve">
<style type="text/css">
	.st0{fill:#B0B741;}
	.st1{fill:#FFFFFF;stroke:#262120;stroke-linecap:round;stroke-miterlimit:10;}
	.st2{fill:none;stroke:#262120;stroke-linecap:round;stroke-miterlimit:10;}
</style>
<g transform="translate(0.000000, -1.000000)">
	<polygon class="st0" points="57.5,21.1 57.5,21.1 57.5,21.1 15.6,36.1 22,91.5 57.5,111.1 57.5,111.1 57.5,111.1 93,91.5 
		99.4,36.1 	"/>
	<path class="st1" d="M49.6,13.3L7.2,28.2l6.7,55.5l35.7,19.6l35.9-19.9l6.7-55.5L49.6,13.3z"/>
	<path class="st2" d="M49.5,18L12,31.4L17.7,81l31.8,17.6l32.3-17.9L88,31.2L49.5,18z"/>
	<path class="st1" d="M76.9,79.4l-9.3-0.2l-5.7-13.3H38.3L33.1,79l-9.8,0.2L49.5,21L76.9,79.4z M58.4,58.1l-8.8-18.5l-7.8,18.5
		L58.4,58.1z"/>
	<path class="st1" d="M49.5,98.6"/>
	<path class="st1" d="M49.5,18"/>
</g>
</svg>
