<?xml version="1.0" encoding="utf-8"?>
<!-- Generator: Adobe Illustrator 21.0.0, SVG Export Plug-In . SVG Version: 6.00 Build 0)  -->
<svg version="1.1" id="Calque_1" xmlns="http://www.w3.org/2000/svg" xmlns:xlink="http://www.w3.org/1999/xlink" x="0px" y="0px"
	 viewBox="0 0 101 108" style="enable-background:new 0 0 101 108;" xml:space="preserve">
<style type="text/css">
	.st0{fill:#B0B741;}
	.st1{fill:#FFFFFF;stroke:#000000;stroke-miterlimit:10;}
	.st2{fill:none;stroke:#262120;stroke-linecap:round;stroke-miterlimit:10;}
</style>
<polygon class="st0" points="54.6,12.2 54.6,12.2 54.6,12.2 12.7,27.2 19.1,82.5 54.6,102.2 54.6,102.2 54.6,102.2 90.1,82.5 
	96.5,27.2 "/>
<g>
	<polygon class="st1" points="46.6,4.2 46.6,4.2 46.6,4.2 4.7,19.1 11.1,74.5 46.6,94.2 46.6,94.2 46.6,94.2 82.1,74.5 88.5,19.1 	
		"/>
	<path class="st1" d="M46.6,14.2L20.4,72.9l0,0h9.8l0,0l5.3-13.1h22.2l5.3,13.1l0,0h9.8l0,0L46.6,14.2L46.6,14.2L46.6,14.2
		L46.6,14.2L46.6,14.2z M54.2,51.6H38.9l7.6-18.4L54.2,51.6z"/>
</g>
<path class="st2" d="M46.6,94.2"/>
<path class="st2" d="M46.6,4.2"/>
</svg>
