<?xml version="1.0" encoding="utf-8"?>
<!-- Generator: Adobe Illustrator 21.0.0, SVG Export Plug-In . SVG Version: 6.00 Build 0)  -->
<svg version="1.1" id="Calque_1" xmlns="http://www.w3.org/2000/svg" xmlns:xlink="http://www.w3.org/1999/xlink" x="0px" y="0px"
	 viewBox="0 0 106.5 117" style="enable-background:new 0 0 106.5 117;" xml:space="preserve">
<style type="text/css">
	.st0{fill:#B0B741;}
	.st1{fill:#FFFFFF;}
	.st2{fill:none;stroke:#262120;stroke-linecap:round;stroke-miterlimit:10;}
</style>
<path class="st0" d="M60.4,37.5L71.7,44L60.4,37.5L49.1,44L60.4,37.5L24.2,16.8v41.3v48.7l36.2-20.7l36.2,20.7V58.2L71.7,44
	l12.9-7.4v14.7l12,6.8V16.8L60.4,37.5z M36.1,36.6L49.1,44l-12.9,7.4V36.6z M84.6,86L60.4,72.1L36.1,86V72.3l11.9,6.8l12.3-7
	l-18-10.3l18-10.3L78.6,62L60.4,72.1l12.3,7l11.9-7V86z"/>
<path class="st1" d="M52.4,31.5L63.7,38L52.4,31.5L41.1,38L52.4,31.5L16.2,10.8v41.3v48.7l36.2-20.7l36.2,20.7V52.2L63.7,38
	l12.9-7.4v14.7l12,6.8V10.8L52.4,31.5z M28.1,30.6L41.1,38l-12.9,7.4V30.6z M76.6,80L52.4,66.1L28.1,80V66.3l11.9,6.8l12.3-7
	l-18-10.3l18-10.3L70.6,56L52.4,66.1l12.3,7l11.9-7V80z"/>
<g id="BackBone.JS_1_">
	<path id="Path_3_" class="st2" d="M52.4,31.5L16.2,10.8v41.3"/>
	<path id="path2996_4_" class="st2" d="M52.4,80.2"/>
	<path id="path2996_2_" class="st2" d="M52.4,31.5l36.2-20.7v41.3"/>
	<path id="path2998_2_" class="st2" d="M52.4,80.2l-36.2,20.7V52.2l36.2-20.7v14L28.2,59.4V80l24.2-13.8"/>
	<polyline class="st2" points="34.6,56 52.4,66.1 52.4,80.2 88.6,100.8 88.6,52.2 52.4,31.5 52.4,45.5 76.6,59.4 76.6,80 52.4,66.1 
			"/>
</g>
<line class="st2" x1="28.2" y1="66.3" x2="40.1" y2="73.1"/>
<polyline class="st2" points="41.1,38 28.2,30.6 28.2,45.3 "/>
<line class="st2" x1="64.7" y1="73.1" x2="76.6" y2="66.2"/>
<line class="st2" x1="52.4" y1="66.1" x2="70.7" y2="56"/>
<polyline class="st2" points="63.7,38 76.6,30.6 76.6,45.3 "/>
</svg>
