<?xml version="1.0" encoding="utf-8"?>
<!-- Generator: Adobe Illustrator 21.0.0, SVG Export Plug-In . SVG Version: 6.00 Build 0)  -->
<svg version="1.1" id="svg2" xmlns="http://www.w3.org/2000/svg" xmlns:xlink="http://www.w3.org/1999/xlink" x="0px" y="0px"
	 viewBox="0 0 142 161" style="enable-background:new 0 0 142 161;" xml:space="preserve">
<style type="text/css">
	.st0{fill:#002A41;stroke:#848484;}
	.st1{fill:#0071B5;stroke:#848484;}
</style>
<g id="Page_1" transform="matrix(0.17893165,0,0,0.17893165,-129.37356,1149.0013)">
	<g id="BackBone.JS">
		<path id="Path" class="st0" d="M723.6-6419.9v485l361,205.8V-5869l-241.5-137.7v-216.2l241.5,137.7v-128.9L723.6-6419.9z"/>
		<path id="path2996" class="st1" d="M1445.6-6419.9v485l-361,205.8V-5869l241.5-137.7v-216.2l-241.5,137.7v-128.9L1445.6-6419.9z"
			/>
		<path id="path2998" class="st1" d="M723.6-5523.2v-485l361-205.8v139.9l-241.5,137.7v205.2l241.5-137.7v139.9L723.6-5523.2z"/>
		<path id="path3000" class="st0" d="M1445.6-5523.2v-485l-361-205.8v139.9l241.5,137.7v205.2l-241.5-137.7v139.9L1445.6-5523.2z"/>
	</g>
</g>
</svg>
