<?xml version="1.0" encoding="utf-8"?>
<!-- Generator: Adobe Illustrator 21.0.0, SVG Export Plug-In . SVG Version: 6.00 Build 0)  -->
<svg version="1.1" id="Calque_1" xmlns="http://www.w3.org/2000/svg" xmlns:xlink="http://www.w3.org/1999/xlink" x="0px" y="0px"
	 viewBox="0 0 110 108" style="enable-background:new 0 0 110 108;" xml:space="preserve">
<style type="text/css">
	.st0{fill:#B0B741;}
	.st1{fill:#FFFFFF;}
	.st2{fill:#FFFFFF;stroke:#262120;stroke-linecap:round;stroke-miterlimit:10;}
	.st3{fill:none;stroke:#262120;stroke-linecap:round;stroke-miterlimit:10;}
	.st4{fill:none;stroke:#262120;stroke-linecap:round;stroke-linejoin:round;stroke-miterlimit:10;}
	.st5{fill:#262120;}
</style>
<g>
	<path class="st0" d="M102.1,89.4c-0.2-1.5-1.5-0.9-1.5-0.9s-2.2,1.7-4.1,1.5c-1.9-0.2-1.3-4.5-1.3-4.5s0.4-3.9-0.7-4.3
		c-1.1-0.3-2.5,1-2.5,1s-1.7,1.9-2.6,4.4l-0.2,0.1c0,0,0.3-4.3,0-5.3c-0.2-0.5-2.3-0.5-2.6,0.4c-0.3,0.9-2,6.9-2.1,9.4
		c0,0-3.2,2.8-6.1,3.2c-2.8,0.5-3.5-1.3-3.5-1.3s7.7-2.2,7.4-8.3c-0.3-6.2-5.9-4.1-6.9-3.4c-0.6,0.5-4.1,2.6-5.1,8.4
		c0,0.2-0.1,1.1-0.1,1.1s-3,2-4.6,2.5c0,0,4.6-7.8-1-11.4c-2.6-1.5-4.6,1.7-4.6,1.7s7.7-8.5,6-15.8c-0.8-3.4-2.5-3.8-4.1-3.2
		c-2.4,0.9-3.3,2.3-3.3,2.3s-3.1,4.5-3.8,11.2c-0.7,6.7-1.8,14.8-1.8,14.8s-1.5,1.4-2.8,1.5c-1.4,0.1-0.8-4-0.8-4s1.1-6.3,1-7.3
		c-0.1-1.1-0.2-1.6-1.4-2c-1.2-0.4-2.6,1.2-2.6,1.2s-3.6,5.4-3.9,6.3L42,89l-0.2-0.2c0,0,2.5-7.4,0.1-7.5s-4,2.6-4,2.6
		s-2.8,4.6-2.9,5.1l-0.2-0.2c0,0,1.1-5.4,0.9-6.7c-0.2-1.3-1.5-1.1-1.5-1.1s-1.6-0.2-2,0.8c-0.4,1-1.9,7.8-2.1,9.9
		c0,0-4,2.8-6.6,2.9c-2.6,0-2.3-1.7-2.3-1.7s9.6-3.3,7-9.7c-0.9-1.9-2.5-2.2-4.5-2.1c-1.9,0-4.3,1.2-5.8,4.7c-0.7,1.7-1,3.2-1.1,4.4
		v0c0,0-1.7,0.3-2.6-0.4c-0.9-0.8-1.4,0-1.4,0s-1.6,1.9,0,2.5s4,0.8,4,0.8c0.2,1.2,0.9,2.9,2.8,4.3c2.8,2.2,8.3-0.2,8.3-0.2l2.2-1.2
		c0,0,0.1,2.1,1.7,2.4c1.6,0.3,2.3,0,5.1-6.9c1.7-3.5,1.8-3.3,1.8-3.3l0.2,0c0,0-1.3,6.7-0.8,8.5c0.5,1.8,2.6,1.6,2.6,1.6
		s1.2,0.3,2.1-3c0.9-3.3,2.8-6.9,2.8-6.9h0.2c0,0-0.8,6.8,0.4,9s4.3,0.7,4.3,0.7s2.2-1.1,2.5-1.5c0,0,2.6,2.2,6.3,1.8
		c8.2-1.6,11.1-3.8,11.1-3.8s1.4,3.6,5.8,3.9c5,0.4,7.7-2.8,7.7-2.8s0,2,1.7,2.8c1.7,0.7,2.9-3.2,2.9-3.2l2.9-7.9h0.3
		c0,0,0.2,5.1,3,5.9c2.9,0.8,6.6-2,6.6-2S102.2,90.9,102.1,89.4z M20.8,90.1c0.1-4.5,3.1-6.5,4.1-5.5c1,1,0.6,3.1-1.3,4.4
		C21.7,90.4,20.8,90.1,20.8,90.1z M59.2,72.7c0,0,2.7-7,3.3-3.6c0.6,3.4-5.6,13.5-5.6,13.5C56.9,80.4,59.2,72.7,59.2,72.7z
		 M62.4,92.2c-1.7,4.7-6.1,2.8-6.1,2.8s-0.5-1.7,0.9-6.3c1.4-4.6,4.7-2.8,4.7-2.8S64.3,87,62.4,92.2z M74.3,90.1
		c0,0-0.4-1.5,1.1-4.3c1.5-2.8,2.8-1.3,2.8-1.3s1.3,1.4-0.2,3.6S74.3,90.1,74.3,90.1z"/>
</g>
<path class="st0" d="M95.9,70.9c-0.5-1.5-2.8-0.1-3.1-0.8c-0.3-0.7,3.2-3,1.6-4.2c-1.2-0.9-2.5,2.1-3.8,1.6
	c-0.9-0.3,0.6-3.6-1.2-3.6c-2.1,0-1.2,3.6-2.6,4.1c-1,0.4-2.3-1.1-3,0c-0.3,0.4-0.3,1.8,1.5,3.3l0,0c-0.8,1.1-1.9,1.7-3,2.1
	l-0.2-0.2c-0.3-1.7-2.5-4.6-2.5-4.6l0,0c4.4-3.7,6.2-9.1,6.4-14.4c0.4-7.5-3.8-12.4-4.8-15.9c0.5-0.9,0.9-1.6,1.1-2.1
	c0.9-1.6,2.9-2.1,3.2-2.3s0.2-2.6-0.3-2.8c-0.5-0.2-1.2,0.2-2.5,0.3c-0.3,0-0.6,0-1.1-0.2c2.4-1.6,6.8-6.9,8.1-10.6
	c1.5-4.2-0.5-7.5-3.5-8c-3.1-0.5-6,2.8-7.6,4S72.2,20,72.2,20l0,0c-3.5-2.3-8.6-4-15.8-4c-4.7,0-8.3,1-11.2,2.4L45,18.3
	c-4.7,1-7-1-10.5-1.6C29.9,16,25.9,16,23.8,20c-1.7,3.2,2.4,7.4,4.2,9c0,0.5,0.2,0.9,0.4,1.1c0.6,0.6,1.3,0.8,1.8,1.6
	c0.3,0.5,0.9,3.3,1.9,6.1l0,0c-1.3,3.4-8.3,10-8.3,19.8c0,9.8,10.8,13.7,10.8,13.7c-2.2,1.9-3,6.9-3,6.9l56.1-0.3
	c0.8-1.2,1.7-4,1.7-4l0.2-0.5C93.1,74.1,96.3,72.2,95.9,70.9z"/>
<path class="st1" d="M87.9,62.9c-0.5-1.5-2.8-0.1-3.1-0.8c-0.3-0.7,3.2-3,1.6-4.2c-1.2-0.9-2.5,2.1-3.8,1.6
	c-0.9-0.3,0.6-3.6-1.2-3.6c-2.1,0-1.2,3.6-2.6,4.1c-1,0.4-2.3-1.1-3,0c-0.3,0.4-0.3,1.8,1.5,3.3l0,0c-0.8,1.1-1.9,1.7-3,2.1
	l-0.2-0.2c-0.3-1.7-2.5-4.6-2.5-4.6l0,0c4.4-3.7,6.2-9.1,6.4-14.4c0.4-7.5-3.8-12.4-4.8-15.9c0.5-0.9,0.9-1.6,1.1-2.1
	c0.9-1.6,2.9-2.1,3.2-2.3s0.2-2.6-0.3-2.8c-0.5-0.2-1.2,0.2-2.5,0.3c-0.3,0-0.6,0-1.1-0.2c2.4-1.6,6.8-6.9,8.1-10.6
	c1.5-4.2-0.5-7.5-3.5-8c-3.1-0.5-6,2.8-7.6,4S64.2,12,64.2,12l0,0c-3.5-2.3-8.6-4-15.8-4c-4.7,0-8.3,1-11.2,2.4L37,10.3
	c-4.7,1-7-1-10.5-1.6C21.9,8,17.9,8,15.8,12c-1.7,3.2,2.4,7.4,4.2,9c0,0.5,0.2,0.9,0.4,1.1c0.6,0.6,1.3,0.8,1.8,1.6
	c0.3,0.5,0.9,3.3,1.9,6.1l0,0c-1.3,3.4-8.3,10-8.3,19.8c0,9.8,10.8,13.7,10.8,13.7c-2.2,1.9-3,6.9-3,6.9l3.3,10.6l48.7-0.6l4-10.3
	c0.8-1.2,1.7-4,1.7-4l0.2-0.5C85.1,66.1,88.3,64.2,87.9,62.9z"/>
<g>
	<path class="st2" d="M94.1,81.4c-0.2-1.5-1.5-0.9-1.5-0.9s-2.2,1.7-4.1,1.5c-1.9-0.2-1.3-4.5-1.3-4.5s0.4-3.9-0.7-4.3
		c-1.1-0.3-2.5,1-2.5,1s-1.7,1.9-2.6,4.4l-0.2,0.1c0,0,0.3-4.3,0-5.3c-0.2-0.5-2.3-0.5-2.6,0.4s-2,6.9-2.1,9.4c0,0-3.2,2.8-6.1,3.2
		s-3.5-1.3-3.5-1.3s7.7-2.2,7.4-8.3c-0.3-6.2-5.9-4.1-6.9-3.4c-0.6,0.5-4.1,2.6-5.1,8.4c0,0.2-0.1,1.1-0.1,1.1s-3,2-4.6,2.5
		c0,0,4.6-7.8-1-11.4c-2.6-1.5-4.6,1.7-4.6,1.7s7.7-8.5,6-15.8c-0.8-3.4-2.5-3.8-4.1-3.2c-2.4,0.9-3.3,2.3-3.3,2.3
		s-3.1,4.5-3.8,11.2c-0.7,6.7-1.8,14.8-1.8,14.8s-1.5,1.4-2.8,1.5c-1.4,0.1-0.8-4-0.8-4s1.1-6.3,1-7.3c-0.1-1.1-0.2-1.6-1.4-2
		c-1.2-0.4-2.6,1.2-2.6,1.2s-3.6,5.4-3.9,6.3L34,81l-0.2-0.2c0,0,2.5-7.4,0.1-7.5s-4,2.6-4,2.6S27.2,80.5,27,81l-0.2-0.2
		c0,0,1.1-5.4,0.9-6.7c-0.2-1.3-1.5-1.1-1.5-1.1s-1.6-0.2-2,0.8c-0.4,1-1.9,7.8-2.1,9.9c0,0-4,2.8-6.6,2.9c-2.6,0-2.3-1.7-2.3-1.7
		s9.6-3.3,7-9.7c-0.9-1.9-2.5-2.2-4.5-2.1c-1.9,0-4.3,1.2-5.8,4.7c-0.7,1.7-1,3.2-1.1,4.4v0c0,0-1.7,0.3-2.6-0.4
		c-0.9-0.8-1.4,0-1.4,0s-1.6,1.9,0,2.5s4,0.8,4,0.8c0.2,1.2,0.9,2.9,2.8,4.3c2.8,2.2,8.3-0.2,8.3-0.2l2.2-1.2c0,0,0.1,2.1,1.7,2.4
		c1.6,0.3,2.3,0,5.1-6.9c1.7-3.5,1.8-3.3,1.8-3.3l0.2,0c0,0-1.3,6.7-0.8,8.5s2.6,1.6,2.6,1.6s1.2,0.3,2.1-3c0.9-3.3,2.8-6.9,2.8-6.9
		h0.2c0,0-0.8,6.8,0.4,9s4.3,0.7,4.3,0.7s2.2-1.1,2.5-1.5c0,0,2.6,2.2,6.3,1.8c8.2-1.6,11.1-3.8,11.1-3.8s1.4,3.6,5.8,3.9
		c5,0.4,7.7-2.8,7.7-2.8s0,2,1.7,2.8c1.7,0.7,2.9-3.2,2.9-3.2l2.9-7.9h0.3c0,0,0.2,5.1,3,5.9s6.6-2,6.6-2S94.2,82.9,94.1,81.4z
		 M12.8,82.1c0.1-4.5,3.1-6.5,4.1-5.5c1,1,0.6,3.1-1.3,4.4C13.7,82.4,12.8,82.1,12.8,82.1z M51.2,64.7c0,0,2.7-7,3.3-3.6
		c0.6,3.4-5.6,13.5-5.6,13.5C48.9,72.4,51.2,64.7,51.2,64.7z M54.4,84.2c-1.7,4.7-6.1,2.8-6.1,2.8s-0.5-1.7,0.9-6.3
		c1.4-4.6,4.7-2.8,4.7-2.8S56.3,79,54.4,84.2z M66.3,82.1c0,0-0.4-1.5,1.1-4.3c1.5-2.8,2.8-1.3,2.8-1.3s1.3,1.4-0.2,3.6
		C68.5,82.3,66.3,82.1,66.3,82.1z"/>
</g>
<path class="st3" d="M23.5,70.3c0,0,0.9-5,3-6.9c0,0-10.8-3.9-10.8-13.7s7-16.3,8.3-19.8"/>
<path class="st3" d="M20.8,21.8c0,0-7.2-5.7-5.1-9.8s6.2-4,10.8-3.3c3.5,0.5,5.7,2.6,10.5,1.6"/>
<path class="st3" d="M28.1,19.4c0,0,4.5-11.5,20.3-11.5C69.9,8,72,23.3,72,23.3"/>
<path class="st3" d="M64.2,12c0,0,4.7-2.1,6.4-3.3s4.6-4.4,7.6-4c3.1,0.5,5,3.7,3.5,8S75,23.1,72.9,23.8"/>
<path class="st3" d="M43.9,67.1c0,0-9.4-0.2-17.4-3.7"/>
<path class="st3" d="M73,29.3c0.1,3.4,5.4,8.6,5,17s-4.7,17.2-17.6,18.9"/>
<path class="st4" d="M32.3,41.2c0,0,6.9,1.9,16.1,0.6s15.8-3.5,15.8-3.5s-3.1,5-4.4,7.8C58.4,49,57,53.6,57,53.6s-6.7,1.3-10.4,1.4
	c-3.7,0.1-5.7-0.2-7-1.7c-1.3-1.5-1.2-5.3-2.6-7.4C35.2,42.6,32.3,41.2,32.3,41.2z"/>
<path class="st4" d="M71.5,60.6c0,0,2.2,2.9,2.5,4.6"/>
<path class="st4" d="M71.5,66c0,0,3.8,0,5.8-2.6"/>
<path class="st4" d="M81.3,66c0,0-0.8,2.8-1.7,4"/>
<path class="st4" d="M78.7,60c1.4-0.6,0.5-4.1,2.6-4.1c1.8,0,0.3,3.3,1.2,3.6c1.3,0.5,2.7-2.5,3.8-1.6c1.6,1.2-1.9,3.5-1.6,4.2
	s2.7-0.7,3.1,0.8c0.5,1.5-4.3,4-8.6,1.7c-3.8-2-3.9-4.2-3.5-4.7C76.4,58.9,77.7,60.4,78.7,60z"/>
<polyline class="st4" points="42.2,43.1 44.5,49.4 48.2,50.6 49,49.3 50,49.7 53.4,47.8 53.4,41 "/>
<line class="st4" x1="47.8" y1="44.2" x2="49" y2="49.3"/>
<ellipse transform="matrix(0.1035 -0.9946 0.9946 0.1035 2.4238 58.3087)" class="st5" cx="33.6" cy="27.8" rx="2.5" ry="1.1"/>
<ellipse transform="matrix(0.9974 -7.244606e-02 7.244606e-02 0.9974 -1.9954 4.6673)" class="st5" cx="63.3" cy="29.8" rx="1.1" ry="2.5"/>
<path class="st5" d="M77.3,23.3c-0.5-0.2-1.2,0.2-2.5,0.3c-1.3,0.1-4.5-1.7-12-2.7c-7.5-0.9-11.2,0.9-14.3,0.8
	c-3.1-0.2-3.9-2.2-14-2.5C29.3,18.9,24.1,20,23.3,20s-3-0.6-3-0.6c-0.4-0.1-0.6,2.1,0,2.8c0.6,0.6,1.3,0.8,1.8,1.6
	c0.5,0.9,1.9,8.7,5,11.1c3.2,2.4,11.4,1.3,13.9,0.2c2.5-1.1,5.3-10.2,5.7-10.5s2.8-0.4,3.3-0.2c1.8,0.8,2.7,9.9,4.8,11.6
	c2.8,2.3,12.2,1.9,13.5,1.7c1.3-0.3,1.8-1.5,1.8-1.5s3.2-6.3,4.1-7.9c0.9-1.6,2.9-2.1,3.2-2.3C77.8,25.9,77.7,23.5,77.3,23.3z
	 M43.9,26c-0.2,0.9-2.7,6.3-4.1,7.1c-1.5,0.8-8.9,1.1-11.1,0.3c-2.2-0.8-3-4.9-3-4.9s-0.8-3.8,0-4.6c6.4-4.8,17.6,0,17.6,0
	C43.9,24.2,44,25.1,43.9,26z M71.6,29.8c0,0-0.5,5.1-3.9,6c-3.4,0.9-9.9-0.8-11-1.7c-1.1-0.9-3.5-5.7-3.3-8.1c0-1.8,2-1.9,2-1.9
	c1.6-0.6,12.3-0.8,15.5,1.9C72.1,27.3,71.6,29.8,71.6,29.8z"/>
<path class="st4" d="M45.7,35.3c-0.6-0.2-0.3-2,0.6-2.4c0.8-0.5,3.2-0.4,3.8,0.5s0.7,1.8,0.3,1.9s-0.4-0.5-0.9-0.5s-0.9,0.4-0.9,0.9
	c0,0.7-0.9,0.7-0.8,0c0.1-0.7-0.3-0.9-0.7-0.9S46.3,35.5,45.7,35.3z"/>
</svg>
