<?xml version="1.0" encoding="utf-8"?>
<!-- Generator: Adobe Illustrator 17.0.0, SVG Export Plug-In . SVG Version: 6.00 Build 0)  -->
<!DOCTYPE svg PUBLIC "-//W3C//DTD SVG 1.1//EN" "http://www.w3.org/Graphics/SVG/1.1/DTD/svg11.dtd">
<svg version="1.1" id="Calque_1" xmlns="http://www.w3.org/2000/svg" xmlns:xlink="http://www.w3.org/1999/xlink" x="0px" y="0px"
	 width="48.627px" height="50.166px" viewBox="0 0 48.627 50.166" enable-background="new 0 0 48.627 50.166" xml:space="preserve">
<g opacity="0.7">
	<g>
		<polygon opacity="0.2" fill="#1559AF" enable-background="new    " points="22.157,15.038 29.201,3.821 42.436,4.346 
			48.627,16.089 41.583,27.306 28.347,26.781 		"/>
		<polygon opacity="0.7" fill="#1559AF" enable-background="new    " points="21.251,37.899 28.295,26.681 41.53,27.207 
			47.721,38.949 40.677,50.166 27.441,49.641 		"/>
		<polygon opacity="0.4" fill="#1559AF" enable-background="new    " points="1.877,25.73 8.921,14.513 22.157,15.038 
			28.347,26.781 21.303,37.998 8.068,37.472 		"/>
	</g>
</g>
<g>
	<g>
		<path d="M42.109,11.998L21.452,0.071c-0.164-0.095-0.366-0.095-0.53,0L0.265,11.998C0.101,12.092,0,12.267,0,12.457V36.31
			c0,0.189,0.101,0.365,0.265,0.459l20.657,11.926c0.082,0.048,0.173,0.071,0.265,0.071s0.183-0.023,0.265-0.071l20.657-11.926
			c0.165-0.095,0.265-0.27,0.265-0.459V12.457C42.374,12.267,42.273,12.092,42.109,11.998z M30.898,30.091l0.242-0.42l-1.148-0.663
			l-0.398,0.689l0.994,0.574l-8.871,5.121V24.778l0.077-0.134l10.339-5.97l-0.243,0.42l1.148,0.663l0.398-0.689l-0.993-0.574
			l8.871-5.121v10.613l-0.077,0.133L30.898,30.091z M11.228,41.6l-0.237,0.137l-9.854-5.689L1.06,35.914V25.301l8.871,5.121
			l-0.993,0.574l0.398,0.689l1.148-0.663l-0.243-0.42l10.019,5.785l-0.993,0.574l0.398,0.689l0.993-0.574V47.32l-9.192-5.307
			L11.228,41.6z M21.264,1.187l19.52,11.27l-9.886,5.708l0.242-0.42l-1.148-0.663l-0.398,0.689l0.994,0.574l-9.325,5.384H21.11
			l-9.324-5.383l0.993-0.574l-0.398-0.689l-1.148,0.663l0.243,0.42L1.59,12.457l19.52-11.27C21.11,1.187,21.264,1.187,21.264,1.187z
			 M9.931,18.497L8.937,19.07l0.398,0.689l1.148-0.663l-0.243-0.42l10.34,5.97l0.077,0.133v10.613l-8.871-5.121l0.993-0.574
			l-0.398-0.689l-1.148,0.664l0.243,0.42l-10.34-5.97L1.06,23.988V13.375L9.931,18.497z M20.657,36.717l-0.088-0.153l0.088,0.051
			V36.717z M21.717,36.616l0.089-0.051l-0.089,0.153V36.616z M21.717,37.074l0.994,0.574l0.398-0.689l-0.993-0.574L32.135,30.6
			l-0.242,0.42l1.148,0.663l0.398-0.689l-0.994-0.574l8.871-5.121v10.613l-0.077,0.134l-9.854,5.691L31.146,41.6l-0.237,0.41
			l-9.192,5.307V37.074z"/>
		<rect x="20.789" y="7.816" width="0.795" height="1.326"/>
		<rect x="20.789" y="18.423" width="0.795" height="1.326"/>
		<rect x="20.789" y="5.165" width="0.795" height="1.326"/>
		<rect x="20.789" y="2.513" width="0.795" height="1.326"/>
		<rect x="20.789" y="15.772" width="0.795" height="1.326"/>
		<rect x="20.789" y="10.468" width="0.795" height="1.326"/>
		<path d="M20.789,13.12v1.326h0.795V13.12h-0.022l0.392-0.678l-0.569-0.329l-0.198,0.344l-0.199-0.344l-0.568,0.329l0.392,0.678
			L20.789,13.12z M21.187,12.916l0.352,0.204h-0.705L21.187,12.916z"/>
		<rect x="20.789" y="21.075" width="0.795" height="1.326"/>
		<rect x="7.016" y="31.67" transform="matrix(-0.5003 -0.8658 0.8658 -0.5003 -16.8714 54.9275)" width="0.795" height="1.325"/>
		<rect x="2.421" y="34.322" transform="matrix(-0.4995 -0.8663 0.8663 -0.4995 -26.0815 54.9028)" width="0.796" height="1.326"/>
		<rect x="4.72" y="32.996" transform="matrix(-0.5003 -0.8658 0.8658 -0.5003 -21.4655 54.9298)" width="0.795" height="1.326"/>
		<rect x="18.5" y="25.042" transform="matrix(0.4995 0.8663 -0.8663 0.4995 31.7269 -3.5066)" width="0.796" height="1.326"/>
		<rect x="16.203" y="26.37" transform="matrix(0.5001 0.866 -0.866 0.5001 31.7083 -0.8622)" width="0.795" height="1.325"/>
		<rect x="13.907" y="27.695" transform="matrix(0.5001 0.866 -0.866 0.5001 31.7081 1.7888)" width="0.795" height="1.326"/>
		<rect x="38.891" y="34.589" transform="matrix(0.8659 0.5003 -0.5003 0.8659 22.8086 -15.0951)" width="1.325" height="0.795"/>
		<rect x="36.597" y="33.266" transform="matrix(0.8661 0.4998 -0.4998 0.8661 21.8133 -14.1166)" width="1.326" height="0.795"/>
		<rect x="27.408" y="27.961" transform="matrix(-0.8661 -0.4998 0.4998 -0.8661 38.2093 66.9505)" width="1.326" height="0.795"/>
		<rect x="34.295" y="31.939" transform="matrix(0.8659 0.5002 -0.5002 0.8659 20.8622 -13.1498)" width="1.325" height="0.795"/>
		<rect x="22.818" y="25.309" transform="matrix(-0.8661 -0.4998 0.4998 -0.8661 30.9699 59.7085)" width="1.326" height="0.796"/>
		<rect x="25.114" y="26.636" transform="matrix(-0.8661 -0.4998 0.4998 -0.8661 34.5923 63.3321)" width="1.326" height="0.795"/>
		<rect x="23.972" y="37.901" transform="matrix(-0.8661 -0.4998 0.4998 -0.8661 26.8292 83.7832)" width="1.326" height="0.796"/>
		<rect x="26.263" y="39.223" transform="matrix(-0.8661 -0.4998 0.4998 -0.8661 30.444 87.3955)" width="1.326" height="0.795"/>
		<rect x="28.827" y="40.288" transform="matrix(0.5001 -0.866 0.866 0.5001 -20.8526 45.78)" width="0.795" height="1.326"/>
		<rect x="17.343" y="37.636" transform="matrix(-0.5003 -0.8658 0.8658 -0.5003 -6.5433 72.8209)" width="0.795" height="1.326"/>
		<rect x="12.752" y="40.288" transform="matrix(-0.5 -0.866 0.866 -0.5 -15.7386 72.8139)" width="0.796" height="1.325"/>
		<rect x="15.047" y="38.96" transform="matrix(-0.5001 -0.866 0.866 -0.5001 -11.1441 72.8118)" width="0.795" height="1.326"/>
		<rect x="18.499" y="13.119" transform="matrix(0.5003 0.8658 -0.8658 0.5003 21.375 -9.4751)" width="0.795" height="1.326"/>
		<rect x="16.204" y="14.443" transform="matrix(0.4999 0.8661 -0.8661 0.4999 21.3851 -6.8235)" width="0.795" height="1.326"/>
		<rect x="13.904" y="15.768" transform="matrix(0.4999 0.8661 -0.8661 0.4999 21.3828 -4.1695)" width="0.795" height="1.326"/>
		<rect x="7.016" y="19.747" transform="matrix(0.5001 0.866 -0.866 0.5001 21.3806 3.7828)" width="0.795" height="1.326"/>
		<rect x="4.72" y="21.074" transform="matrix(0.5003 0.8658 -0.8658 0.5003 21.3774 6.4303)" width="0.795" height="1.326"/>
		<rect x="2.159" y="22.659" transform="matrix(-0.8661 0.4998 -0.4998 -0.8661 16.7905 41.6161)" width="1.326" height="0.795"/>
		<rect x="34.299" y="20.01" transform="matrix(-0.866 -0.5 0.5 -0.866 55.0351 55.5629)" width="1.326" height="0.795"/>
		<rect x="22.816" y="13.382" transform="matrix(0.8661 0.4998 -0.4998 0.8661 10.0301 -9.8907)" width="1.326" height="0.795"/>
		<rect x="27.41" y="16.035" transform="matrix(0.8659 0.5002 -0.5002 0.8659 11.9839 -11.8383)" width="1.325" height="0.795"/>
		<rect x="25.111" y="14.709" transform="matrix(0.866 0.5 -0.5 0.866 11.0067 -10.8635)" width="1.326" height="0.795"/>
		<rect x="39.158" y="22.399" transform="matrix(0.4999 -0.8661 0.8661 0.4999 -0.1914 45.7915)" width="0.795" height="1.326"/>
		<rect x="36.596" y="21.336" transform="matrix(-0.866 -0.5 0.5 -0.866 58.6582 59.1852)" width="1.326" height="0.795"/>
	</g>
</g>
</svg>
