<?xml version="1.0" encoding="utf-8"?>
<!-- Generator: Adobe Illustrator 17.0.0, SVG Export Plug-In . SVG Version: 6.00 Build 0)  -->
<!DOCTYPE svg PUBLIC "-//W3C//DTD SVG 1.1//EN" "http://www.w3.org/Graphics/SVG/1.1/DTD/svg11.dtd">
<svg version="1.1" id="Calque_1" xmlns="http://www.w3.org/2000/svg" xmlns:xlink="http://www.w3.org/1999/xlink" x="0px" y="0px"
	 width="58px" height="44.612px" viewBox="64.184 -13.497 58 44.612" enable-background="new 64.184 -13.497 58 44.612"
	 xml:space="preserve">
<g>
	<g opacity="0.6">
		<g>
			<polygon opacity="0.2" fill="#D52668" enable-background="new    " points="83.109,21.402 71.196,22.648 64.184,12.935 
				69.087,1.977 81.001,0.731 88.013,10.444 			"/>
			<polygon opacity="0.7" fill="#D52668" enable-background="new    " points="99.886,9.291 87.972,10.536 80.96,0.823 
				85.863,-10.135 97.777,-11.381 104.789,-1.668 			"/>
			<polygon opacity="0.4" fill="#D52668" enable-background="new    " points="102.036,29.869 90.121,31.115 83.109,21.402 
				88.013,10.444 99.927,9.198 106.939,18.911 			"/>
		</g>
	</g>
	<path d="M104.461,17.079H75.285c-0.319,0-0.581-0.26-0.581-0.581v-3.448h25.982c0.321,0,0.581-0.259,0.581-0.581
		c0-0.321-0.259-0.581-0.581-0.581H74.705v-23.645c0-0.319,0.26-0.581,0.581-0.581h41.121c0.321,0,0.581,0.26,0.581,0.581v17.17
		c0,0.321,0.259,0.581,0.581,0.581s0.581-0.26,0.581-0.581v-17.17c0-0.96-0.781-1.742-1.742-1.742H75.285
		c-0.96,0-1.742,0.781-1.742,1.742v28.253c0,0.96,0.781,1.742,1.742,1.742h17.016l-0.368,3.941
		c-0.005,0.096-0.177,2.347-4.064,2.347c-0.321,0-0.581,0.259-0.581,0.581s0.26,0.581,0.581,0.581h15.954
		c0.321,0,0.581-0.259,0.581-0.581s-0.259-0.581-0.581-0.581c-3.887,0-4.059-2.252-4.066-2.376l-0.366-3.913h5.068
		c0.321,0,0.581-0.259,0.581-0.581C105.04,17.337,104.782,17.079,104.461,17.079z M99.86,24.527h-8.024
		c1.193-0.996,1.257-2.268,1.257-2.268l0.376-4.02h4.758l0.374,3.985C98.601,22.246,98.664,23.529,99.86,24.527z M122.026,12.072
		l-4.979-5.277c-0.221-0.233-0.587-0.243-0.821-0.024c-0.233,0.22-0.244,0.587-0.024,0.821l4.604,4.878l-4.604,4.876
		c-0.22,0.233-0.209,0.601,0.024,0.821c0.113,0.105,0.255,0.158,0.399,0.158c0.155,0,0.307-0.061,0.423-0.182l4.979-5.275
		C122.237,12.646,122.237,12.296,122.026,12.072z M108.148,6.772c-0.233-0.219-0.601-0.21-0.821,0.024l-4.979,5.275
		c-0.211,0.224-0.211,0.572,0,0.797l4.979,5.277c0.115,0.12,0.268,0.182,0.423,0.182c0.143,0,0.286-0.053,0.399-0.158
		c0.233-0.22,0.244-0.587,0.024-0.821l-4.604-4.878l4.604-4.876C108.392,7.36,108.381,6.993,108.148,6.772z M114.393,6.722
		c-0.3-0.113-0.635,0.035-0.75,0.333l-3.996,10.414c-0.115,0.299,0.035,0.635,0.333,0.75c0.068,0.026,0.139,0.038,0.208,0.038
		c0.233,0,0.453-0.141,0.542-0.373l3.996-10.414C114.842,7.172,114.692,6.837,114.393,6.722z"/>
</g>
</svg>
