<?xml version="1.0" encoding="utf-8"?>
<!-- Generator: Adobe Illustrator 17.0.0, SVG Export Plug-In . SVG Version: 6.00 Build 0)  -->
<!DOCTYPE svg PUBLIC "-//W3C//DTD SVG 1.1//EN" "http://www.w3.org/Graphics/SVG/1.1/DTD/svg11.dtd">
<svg version="1.1" id="Calque_1" xmlns="http://www.w3.org/2000/svg" xmlns:xlink="http://www.w3.org/1999/xlink" x="0px" y="0px"
	 width="45.452px" height="55.59px" viewBox="0 0 45.452 55.59" enable-background="new 0 0 45.452 55.59" xml:space="preserve">
<g opacity="0.7">
	<g>
		<polygon opacity="0.2" fill="#0096BD" enable-background="new    " points="9.54,34.858 0,26.54 2.465,14.125 14.469,10.029 
			24.009,18.347 21.544,30.761 		"/>
		<polygon opacity="0.7" fill="#0096BD" enable-background="new    " points="30.982,39.114 21.443,30.796 23.908,18.381 
			35.912,14.285 45.452,22.603 42.987,35.017 		"/>
		<polygon opacity="0.4" fill="#0096BD" enable-background="new    " points="16.614,55.59 7.075,47.272 9.54,34.858 21.544,30.761 
			31.084,39.079 28.619,51.494 		"/>
	</g>
</g>
<g transform="translate(0,-952.36218)">
	<path d="M5.402,952.362c-0.341-0.001-0.524,0.294-0.523,0.519l-0.185,43.771c-0.001,0.273,0.246,0.522,0.519,0.523l25.012,0.106
		c0.273,0.001,0.522-0.246,0.523-0.519l0.185-43.771c0.001-0.273-0.246-0.522-0.519-0.523L5.402,952.362L5.402,952.362z
		 M5.919,953.407l23.97,0.102l-0.018,4.169l-23.97-0.102L5.919,953.407L5.919,953.407z M5.897,958.617l23.97,0.102l-0.128,30.223
		l-23.97-0.102L5.897,958.617L5.897,958.617z M5.765,989.882l23.97,0.102l-0.026,6.253l-23.97-0.102L5.765,989.882L5.765,989.882z
		 M17.741,992.017c-0.576-0.002-1.044,0.462-1.047,1.038c-0.002,0.576,0.462,1.044,1.038,1.047c0.576,0.002,1.044-0.462,1.047-1.038
		C18.781,992.488,18.316,992.02,17.741,992.017z"/>
</g>
</svg>
