<?xml version="1.0" encoding="utf-8"?>
<!-- Generator: Adobe Illustrator 17.0.0, SVG Export Plug-In . SVG Version: 6.00 Build 0)  -->
<!DOCTYPE svg PUBLIC "-//W3C//DTD SVG 1.1//EN" "http://www.w3.org/Graphics/SVG/1.1/DTD/svg11.dtd">
<svg version="1.1" id="Calque_1" xmlns="http://www.w3.org/2000/svg" xmlns:xlink="http://www.w3.org/1999/xlink" x="0px" y="0px"
	 width="57.738px" height="44.411px" viewBox="0 0 57.738 44.411" enable-background="new 0 0 57.738 44.411" xml:space="preserve">
<g opacity="0.6">
	<g>
		<polygon opacity="0.2" fill="#D52668" enable-background="new    " points="18.84,34.742 6.98,35.982 0,26.313 4.881,15.404 
			16.741,14.164 23.721,23.833 		"/>
		<polygon opacity="0.7" fill="#D52668" enable-background="new    " points="35.541,22.685 23.68,23.925 16.7,14.256 21.581,3.347 
			33.441,2.107 40.421,11.776 		"/>
		<polygon opacity="0.4" fill="#D52668" enable-background="new    " points="37.681,43.171 25.82,44.411 18.84,34.742 
			23.721,23.833 35.582,22.593 42.562,32.262 		"/>
	</g>
</g>
<path d="M40.095,30.438H11.051c-0.318,0-0.578-0.259-0.578-0.578v-3.432h25.865c0.32,0,0.578-0.258,0.578-0.578
	s-0.258-0.578-0.578-0.578H10.473V1.734c0-0.318,0.259-0.578,0.578-0.578h40.936c0.319,0,0.578,0.259,0.578,0.578v17.092
	c0,0.319,0.258,0.578,0.578,0.578s0.578-0.259,0.578-0.578V1.734C53.721,0.778,52.943,0,51.987,0H11.051
	c-0.956,0-1.734,0.778-1.734,1.734V29.86c0,0.956,0.778,1.734,1.734,1.734H27.99l-0.366,3.923c-0.005,0.095-0.176,2.337-4.046,2.337
	c-0.319,0-0.578,0.258-0.578,0.578s0.259,0.578,0.578,0.578H39.46c0.32,0,0.578-0.258,0.578-0.578s-0.258-0.578-0.578-0.578
	c-3.87,0-4.041-2.242-4.048-2.365l-0.364-3.895h5.045c0.32,0,0.578-0.258,0.578-0.578S40.414,30.438,40.095,30.438z M35.515,37.853
	h-7.988c1.188-0.991,1.251-2.258,1.251-2.258l0.374-4.002h4.737l0.372,3.967C34.261,35.582,34.324,36.859,35.515,37.853z
	 M57.581,25.454l-4.957-5.253c-0.22-0.232-0.585-0.242-0.817-0.024c-0.232,0.219-0.243,0.585-0.024,0.817l4.583,4.856l-4.583,4.854
	c-0.219,0.232-0.208,0.598,0.024,0.817c0.112,0.105,0.254,0.157,0.397,0.157c0.154,0,0.306-0.061,0.421-0.181l4.957-5.251
	C57.791,26.025,57.791,25.677,57.581,25.454z M43.765,20.178c-0.232-0.218-0.598-0.209-0.817,0.024l-4.957,5.251
	c-0.21,0.223-0.21,0.57,0,0.793l4.957,5.253c0.114,0.12,0.267,0.181,0.421,0.181c0.142,0,0.285-0.053,0.397-0.157
	c0.232-0.219,0.243-0.585,0.024-0.817l-4.583-4.856l4.583-4.854C44.008,20.763,43.997,20.398,43.765,20.178z M49.982,20.128
	c-0.299-0.113-0.632,0.035-0.747,0.332l-3.978,10.367c-0.114,0.298,0.035,0.632,0.332,0.747c0.068,0.026,0.138,0.038,0.207,0.038
	c0.232,0,0.451-0.141,0.54-0.371l3.978-10.367C50.429,20.576,50.28,20.242,49.982,20.128z"/>
</svg>
