<?xml version="1.0" encoding="utf-8"?>
<!-- Generator: Adobe Illustrator 17.0.0, SVG Export Plug-In . SVG Version: 6.00 Build 0)  -->
<!DOCTYPE svg PUBLIC "-//W3C//DTD SVG 1.1//EN" "http://www.w3.org/Graphics/SVG/1.1/DTD/svg11.dtd">
<svg version="1.1" id="Calque_1" xmlns="http://www.w3.org/2000/svg" xmlns:xlink="http://www.w3.org/1999/xlink" x="0px" y="0px"
	 width="51.204px" height="51.94px" viewBox="0 0 51.204 51.94" enable-background="new 0 0 51.204 51.94" xml:space="preserve">
<g opacity="0.8">
	<g>
		<polygon opacity="0.2" fill="#BABF10" enable-background="new    " points="28.954,38.541 21.181,50.772 6.704,50.119 0,37.236 
			7.773,25.005 22.25,25.658 		"/>
		<polygon opacity="0.7" fill="#BABF10" enable-background="new    " points="30.08,13.536 22.307,25.767 7.83,25.114 1.126,12.231 
			8.899,0 23.376,0.653 		"/>
		<polygon opacity="0.4" fill="#BABF10" enable-background="new    " points="51.204,26.963 43.431,39.194 28.954,38.541 
			22.25,25.658 30.024,13.427 44.501,14.08 		"/>
	</g>
</g>
<g transform="translate(0,-952.36218)">
	<path d="M8.074,957.591v46.163c0,0.288,0.262,0.549,0.55,0.55h35.171c0.288,0,0.55-0.262,0.55-0.55v-41.766
		c0-0.288-0.262-0.549-0.55-0.55h-3.847v-3.847c0-0.288-0.262-0.55-0.55-0.55H8.624C8.259,957.041,8.074,957.36,8.074,957.591z
		 M9.173,958.14h29.676v3.297H9.173V958.14z M9.173,962.537h4.396v40.667H9.173V962.537z M14.669,962.537h28.577v40.667H14.669
		V962.537z M19.615,971.879c0,0.259,0.261,0.55,0.55,0.55H37.75c0.29,0.004,0.557-0.259,0.557-0.55s-0.267-0.554-0.557-0.55H20.165
		C19.759,971.329,19.615,971.62,19.615,971.879z M22.363,977.375c0,0.259,0.261,0.55,0.55,0.55h12.09
		c0.29,0.004,0.557-0.259,0.557-0.55s-0.267-0.554-0.557-0.55h-12.09C22.507,976.825,22.363,977.115,22.363,977.375z"/>
</g>
</svg>
