<svg xmlns:dc="http://purl.org/dc/elements/1.1/" xmlns:cc="http://creativecommons.org/ns#" xmlns:rdf="http://www.w3.org/1999/02/22-rdf-syntax-ns#" xmlns:svg="http://www.w3.org/2000/svg" xmlns="http://www.w3.org/2000/svg" xmlns:sodipodi="http://sodipodi.sourceforge.net/DTD/sodipodi-0.dtd" xmlns:inkscape="http://www.inkscape.org/namespaces/inkscape" version="1.1" x="0px" y="0px" viewBox="0 0 100 125"><g transform="translate(0,-952.36218)"><path style="font-size:medium;font-style:normal;font-variant:normal;font-weight:normal;font-stretch:normal;text-indent:0;text-align:start;text-decoration:none;line-height:normal;letter-spacing:normal;word-spacing:normal;text-transform:none;direction:ltr;block-progression:tb;writing-mode:lr-tb;text-anchor:start;baseline-shift:baseline;opacity:1;color:#000000;fill:#000000;fill-opacity:1;stroke:none;stroke-width:2;marker:none;visibility:visible;display:inline;overflow:visible;enable-background:accumulate;font-family:Sans;-inkscape-font-specification:Sans" d="m 17,8 0,84 c 5.2e-5,0.523584 0.476416,0.999948 1,1 l 64,0 c 0.523584,-5.2e-5 0.999948,-0.476416 1,-1 l 0,-76 c -5.2e-5,-0.523584 -0.476416,-0.999948 -1,-1 l -7,0 0,-7 C 74.999948,7.4764155 74.523584,7.0000524 74,7 L 18,7 c -0.66388,0 -1,0.5807709 -1,1 z m 2,1 54,0 0,6 -54,0 z m 0,8 8,0 0,74 -8,0 z m 10,0 52,0 0,74 -52,0 z m 9,17 c 0,0.471405 0.474105,1 1,1 l 32,0 c 0.528313,0.0075 1.014242,-0.471635 1.014242,-1 0,-0.528365 -0.485929,-1.007472 -1.014242,-1 l -32,0 c -0.738105,0 -1,0.528595 -1,1 z m 5,10 c 0,0.471405 0.474105,1 1,1 l 22,0 c 0.528313,0.0075 1.014242,-0.471635 1.014242,-1 0,-0.528365 -0.485929,-1.007472 -1.014242,-1 l -22,0 c -0.738105,0 -1,0.528595 -1,1 z" transform="translate(0,952.36218)"/></g><text x="0" y="115" fill="#000000" font-size="5px" font-weight="bold" font-family="'Helvetica Neue', Helvetica, Arial-Unicode, Arial, Sans-serif">Created by joe pictos</text><text x="0" y="120" fill="#000000" font-size="5px" font-weight="bold" font-family="'Helvetica Neue', Helvetica, Arial-Unicode, Arial, Sans-serif">from the Noun Project</text></svg>