<svg xmlns:dc="http://purl.org/dc/elements/1.1/" xmlns:cc="http://creativecommons.org/ns#" xmlns:rdf="http://www.w3.org/1999/02/22-rdf-syntax-ns#" xmlns:svg="http://www.w3.org/2000/svg" xmlns="http://www.w3.org/2000/svg" xmlns:sodipodi="http://sodipodi.sourceforge.net/DTD/sodipodi-0.dtd" xmlns:inkscape="http://www.inkscape.org/namespaces/inkscape" version="1.1" x="0px" y="0px" viewBox="0 0 100 125"><g transform="translate(0,-952.36218)"><path d="m 26.000019,959.36217 c -0.65455,0 -1.004151,0.5683 -1.000001,1 l 0,84.00003 c 5.1e-5,0.5236 0.476421,0.9999 1.000001,1 l 48,0 c 0.52358,-10e-5 0.99995,-0.4764 1,-1 l 0,-84.00003 c -5e-5,-0.5236 -0.47642,-0.9999 -1,-1 l -48,0 z m 1,2 46,0 0,8.00002 -46,0 0,-8.00002 z m 0,10.00002 46,0 0,58.00001 -46,0 0,-58.00001 z m 0,60.00001 46,0 0,12 -46,0 0,-12 z m 23,4 c -1.10457,0 -2,0.8954 -2,2 0,1.1046 0.89543,2 2,2 1.10457,0 2,-0.8954 2,-2 0,-1.1046 -0.89543,-2 -2,-2 z" style="text-indent:0;text-transform:none;direction:ltr;block-progression:tb;baseline-shift:baseline;color:#000000;enable-background:accumulate;" fill="#000000" fill-opacity="1" fill-rule="nonzero" stroke="none" marker="none" visibility="visible" display="inline" overflow="visible"/></g><text x="0" y="115" fill="#000000" font-size="5px" font-weight="bold" font-family="'Helvetica Neue', Helvetica, Arial-Unicode, Arial, Sans-serif">Created by Aybige Aya</text><text x="0" y="120" fill="#000000" font-size="5px" font-weight="bold" font-family="'Helvetica Neue', Helvetica, Arial-Unicode, Arial, Sans-serif">from the Noun Project</text></svg>