<svg xmlns="http://www.w3.org/2000/svg" xmlns:xlink="http://www.w3.org/1999/xlink" version="1.1" x="0px" y="0px" viewBox="0 0 100 125" enable-background="new 0 0 100 100" xml:space="preserve"><path d="M61.363,68.918H11.107c-0.551,0-1-0.448-1-1V61.98h44.756c0.553,0,1-0.447,1-1s-0.447-1-1-1H10.107V19.25  c0-0.551,0.449-1,1-1h70.834c0.552,0,1,0.449,1,1v29.576c0,0.552,0.447,1,1,1s1-0.448,1-1V19.25c0-1.654-1.346-3-3-3H11.107  c-1.654,0-3,1.346-3,3v48.668c0,1.654,1.346,3,3,3h29.311l-0.633,6.788c-0.009,0.165-0.304,4.044-7.001,4.044c-0.552,0-1,0.447-1,1  s0.448,1,1,1h27.481c0.553,0,1-0.447,1-1s-0.447-1-1-1c-6.697,0-6.992-3.879-7.004-4.093l-0.629-6.739h8.73c0.553,0,1-0.447,1-1  S61.916,68.918,61.363,68.918z M53.438,81.75H39.616c2.055-1.714,2.165-3.907,2.164-3.907l0.647-6.925h8.197l0.643,6.865  C51.268,77.819,51.378,80.03,53.438,81.75z M91.62,60.295l-8.578-9.089c-0.38-0.402-1.012-0.419-1.414-0.041  c-0.401,0.379-0.42,1.013-0.041,1.414l7.931,8.402l-7.931,8.399c-0.379,0.401-0.36,1.034,0.041,1.414  c0.193,0.182,0.44,0.272,0.687,0.272c0.266,0,0.53-0.105,0.728-0.313l8.578-9.086C91.983,61.282,91.983,60.681,91.62,60.295z   M67.714,51.165c-0.401-0.378-1.034-0.361-1.414,0.041l-8.578,9.086c-0.363,0.386-0.363,0.987,0,1.373l8.578,9.089  c0.197,0.208,0.462,0.313,0.728,0.313c0.246,0,0.493-0.091,0.687-0.272c0.401-0.379,0.42-1.013,0.041-1.414l-7.931-8.402  l7.931-8.399C68.134,52.178,68.115,51.545,67.714,51.165z M78.472,51.078c-0.517-0.196-1.094,0.06-1.292,0.575l-6.884,17.938  c-0.198,0.516,0.06,1.094,0.575,1.292c0.118,0.045,0.239,0.066,0.358,0.066c0.401,0,0.781-0.244,0.934-0.642l6.884-17.938  C79.245,51.854,78.987,51.276,78.472,51.078z"/><text x="0" y="115" fill="#000000" font-size="5px" font-weight="bold" font-family="'Helvetica Neue', Helvetica, Arial-Unicode, Arial, Sans-serif">Created by Umesh Vgl</text><text x="0" y="120" fill="#000000" font-size="5px" font-weight="bold" font-family="'Helvetica Neue', Helvetica, Arial-Unicode, Arial, Sans-serif">from the Noun Project</text></svg>