<svg xmlns="http://www.w3.org/2000/svg" xmlns:xlink="http://www.w3.org/1999/xlink" version="1.1" x="0px" y="0px" viewBox="0 0 100 125" enable-background="new 0 0 100 100" xml:space="preserve"><path d="M39.034,68.385c0.195,0.195,0.451,0.293,0.707,0.293s0.512-0.098,0.707-0.293l35.355-35.355  c0.391-0.391,0.391-1.023,0-1.414s-1.023-0.391-1.414,0L39.741,66.264l-14.13-14.13c-0.391-0.391-1.023-0.391-1.414,0  s-0.391,1.023,0,1.414L39.034,68.385z"/><path d="M90,9H10c-0.552,0-1,0.448-1,1v80c0,0.552,0.448,1,1,1h80c0.552,0,1-0.448,1-1V10C91,9.448,90.552,9,90,9z M89,89H11V11h78  V89z"/><text x="0" y="115" fill="#000000" font-size="5px" font-weight="bold" font-family="'Helvetica Neue', Helvetica, Arial-Unicode, Arial, Sans-serif">Created by Ema Dimitrova</text><text x="0" y="120" fill="#000000" font-size="5px" font-weight="bold" font-family="'Helvetica Neue', Helvetica, Arial-Unicode, Arial, Sans-serif">from the Noun Project</text></svg>