<svg xmlns="http://www.w3.org/2000/svg" xmlns:xlink="http://www.w3.org/1999/xlink" version="1.1" x="0px" y="0px" viewBox="0 0 100 125" enable-background="new 0 0 100 100" xml:space="preserve"><g><g><path d="M89.471,26.634L50.5,4.134c-0.31-0.179-0.69-0.179-1,0l-38.971,22.5c-0.31,0.179-0.5,0.509-0.5,0.866v45    c0,0.357,0.19,0.688,0.5,0.866l38.971,22.5C49.655,95.956,49.827,96,50,96s0.345-0.044,0.5-0.134l38.971-22.5    c0.312-0.179,0.5-0.509,0.5-0.866v-45C89.971,27.143,89.781,26.813,89.471,26.634z M68.32,60.768l0.457-0.793l-2.166-1.25    l-0.75,1.299l1.875,1.082L51,70.768V50.746l0.146-0.252l19.506-11.262l-0.459,0.793l2.166,1.25l0.75-1.299l-1.873-1.082    l16.736-9.662v20.023l-0.146,0.251L68.32,60.768z M31.212,82.482l-0.447,0.258l-18.59-10.733l-0.146-0.252V51.732l16.736,9.662    l-1.874,1.082l0.75,1.299l2.166-1.25l-0.458-0.793L48.25,72.645l-1.874,1.082l0.75,1.299L49,73.943V93.27L31.659,83.257    L31.212,82.482z M50.145,6.239L86.971,27.5L68.32,38.268l0.457-0.793l-2.166-1.251l-0.75,1.299l1.875,1.082L50.144,48.762h-0.289    l-17.59-10.156l1.874-1.082l-0.75-1.299l-2.166,1.251l0.458,0.793L13.029,27.5L49.855,6.239H50.145z M28.764,38.895l-1.874,1.082    l0.75,1.299l2.166-1.25l-0.458-0.793l19.507,11.262L49,50.745v20.022l-16.735-9.662l1.874-1.082l-0.75-1.299l-2.166,1.252    l0.458,0.793L12.174,49.506l-0.145-0.251V29.232L28.764,38.895z M49,73.27l-0.166-0.289L49,73.078V73.27z M51,73.078l0.167-0.096    L51,73.27V73.078z M51,73.943l1.875,1.082l0.75-1.299l-1.874-1.082L70.652,61.73l-0.457,0.793l2.166,1.25l0.75-1.299l-1.875-1.082    l16.736-9.662v20.022l-0.146,0.252L69.236,82.74l-0.447-0.258l-0.448,0.773L51,93.268V73.943z"/><rect x="49.25" y="18.745" width="1.5" height="2.501"/><rect x="49.25" y="38.756" width="1.5" height="2.501"/><rect x="49.25" y="13.743" width="1.5" height="2.501"/><rect x="49.25" y="8.74" width="1.5" height="2.501"/><rect x="49.25" y="33.754" width="1.5" height="2.501"/><rect x="49.25" y="23.748" width="1.5" height="2.501"/><path d="M49.25,28.751v2.501h1.5v-2.501h-0.042l0.739-1.28l-1.073-0.62L50,27.5l-0.375-0.649l-1.072,0.62l0.74,1.28H49.25z     M50,28.366l0.665,0.384h-1.33L50,28.366z"/><rect x="49.25" y="43.759" width="1.5" height="2.501"/><rect x="23.268" y="63.747" transform="matrix(-0.5003 -0.8658 0.8658 -0.5003 -20.244 118.312)" width="1.5" height="2.5"/><rect x="14.597" y="68.753" transform="matrix(-0.4995 -0.8663 0.8663 -0.4995 -37.6313 118.2668)" width="1.502" height="2.501"/><rect x="18.936" y="66.249" transform="matrix(-0.5003 -0.8658 0.8658 -0.5003 -28.9105 118.3153)" width="1.5" height="2.501"/><rect x="44.93" y="51.244" transform="matrix(0.4995 0.8663 -0.8663 0.4995 68.34 -13.3008)" width="1.502" height="2.501"/><rect x="40.596" y="53.747" transform="matrix(0.5001 0.866 -0.866 0.5001 68.2972 -8.3096)" width="1.5" height="2.5"/><rect x="36.263" y="56.247" transform="matrix(0.5001 0.866 -0.866 0.5001 68.2966 -3.3076)" width="1.5" height="2.501"/><rect x="83.399" y="69.255" transform="matrix(0.8659 0.5003 -0.5003 0.8659 46.3788 -32.9587)" width="2.5" height="1.5"/><rect x="79.071" y="66.759" transform="matrix(0.8661 0.4998 -0.4998 0.8661 44.4966 -31.1094)" width="2.501" height="1.5"/><rect x="61.737" y="56.749" transform="matrix(-0.8661 -0.4998 0.4998 -0.8661 88.8019 138.7834)" width="2.501" height="1.5"/><rect x="74.733" y="64.253" transform="matrix(0.8659 0.5002 -0.5002 0.8659 42.7001 -29.2891)" width="2.499" height="1.5"/><rect x="53.079" y="51.747" transform="matrix(-0.8661 -0.4998 0.4998 -0.8661 75.1443 125.1233)" width="2.501" height="1.502"/><rect x="57.411" y="54.249" transform="matrix(-0.8661 -0.4998 0.4998 -0.8661 81.9783 131.9557)" width="2.501" height="1.5"/><rect x="55.254" y="75.501" transform="matrix(-0.8661 -0.4998 0.4998 -0.8661 67.3318 170.5376)" width="2.501" height="1.501"/><rect x="59.579" y="77.997" transform="matrix(-0.8661 -0.4998 0.4998 -0.8661 74.1539 177.356)" width="2.501" height="1.5"/><rect x="64.413" y="80.004" transform="matrix(0.5001 -0.866 0.866 0.5001 -37.7884 97.0531)" width="1.5" height="2.501"/><rect x="42.751" y="75.002" transform="matrix(-0.5003 -0.8658 0.8658 -0.5003 -0.7588 152.067)" width="1.5" height="2.501"/><rect x="34.085" y="80.004" transform="matrix(-0.5 -0.866 0.866 -0.5 -18.113 152.0516)" width="1.501" height="2.5"/><rect x="38.419" y="77.503" transform="matrix(-0.5001 -0.866 0.866 -0.5001 -9.4435 152.0541)" width="1.5" height="2.501"/><rect x="44.928" y="28.75" transform="matrix(0.5003 0.8658 -0.8658 0.5003 48.8006 -24.5591)" width="1.5" height="2.501"/><rect x="40.599" y="31.247" transform="matrix(0.4999 0.8661 -0.8661 0.4999 48.8233 -19.5598)" width="1.5" height="2.501"/><rect x="36.263" y="33.748" transform="matrix(0.4999 0.8661 -0.8661 0.4999 48.8204 -14.5542)" width="1.5" height="2.501"/><rect x="23.266" y="41.253" transform="matrix(0.5001 0.866 -0.866 0.5001 48.8138 0.4515)" width="1.5" height="2.501"/><rect x="18.932" y="43.756" transform="matrix(0.5003 0.8658 -0.8658 0.5003 48.804 5.4484)" width="1.5" height="2.501"/><rect x="14.101" y="46.75" transform="matrix(-0.8661 0.4998 -0.4998 -0.8661 52.39 80.9675)" width="2.501" height="1.5"/><rect x="74.733" y="41.753" transform="matrix(-0.866 -0.5 0.5 -0.866 120.5371 117.3023)" width="2.501" height="1.5"/><rect x="53.073" y="29.245" transform="matrix(0.8661 0.4998 -0.4998 0.8661 22.2642 -23.1363)" width="2.502" height="1.5"/><rect x="61.744" y="34.248" transform="matrix(0.8659 0.5002 -0.5002 0.8659 25.9492 -26.8145)" width="2.5" height="1.5"/><rect x="57.407" y="31.748" transform="matrix(0.866 0.5 -0.5 0.866 24.1064 -24.974)" width="2.501" height="1.5"/><rect x="83.904" y="46.259" transform="matrix(0.4999 -0.8661 0.8661 0.4999 1.1873 97.0753)" width="1.5" height="2.501"/><rect x="79.067" y="44.254" transform="matrix(-0.866 -0.5 0.5 -0.866 127.374 124.1361)" width="2.501" height="1.5"/></g></g><text x="0" y="115" fill="#000000" font-size="5px" font-weight="bold" font-family="'Helvetica Neue', Helvetica, Arial-Unicode, Arial, Sans-serif">Created by Juan Pablo Bravo</text><text x="0" y="120" fill="#000000" font-size="5px" font-weight="bold" font-family="'Helvetica Neue', Helvetica, Arial-Unicode, Arial, Sans-serif">from the Noun Project</text></svg>